<svg version="1.1" xmlns="http://www.w3.org/2000/svg" xmlns:xlink="http://www.w3.org/1999/xlink" width="522.82364" height="455.73734" viewBox="0,0,522.82364,455.73734"><g transform="translate(121.25235,-116.5)"><g data-paper-data="{&quot;isPaintingLayer&quot;:true}" fill-rule="nonzero" stroke-linecap="butt" stroke-linejoin="miter" stroke-miterlimit="10" stroke-dasharray="" stroke-dashoffset="0" style="mix-blend-mode: normal"><path d="M31,361v-242h208v242z" fill="#ffffff" stroke="#000000" stroke-width="5"/><text transform="translate(44.82259,234.81507) scale(0.42532,0.4494)" font-size="40" xml:space="preserve" fill="#000000" fill-rule="nonzero" stroke="none" stroke-width="1" stroke-linecap="butt" stroke-linejoin="miter" stroke-miterlimit="10" stroke-dasharray="" stroke-dashoffset="0" font-family="&quot;Comic Sans MS&quot;, Sans Serif" font-weight="normal" text-anchor="start" style="mix-blend-mode: normal"><tspan x="0" dy="0">created by </tspan><tspan x="0" dy="46.150000000000006px">создайпирамиду.скам</tspan></text><path d="M170.52459,298.52939c-0.32133,-0.58499 -0.65193,-1.19869 -0.99893,-1.84533c-3.54412,-6.6045 -6.35777,-11.3486 -1.44284,-18.79355c3.25454,-4.92985 11.28078,-7.97075 16.86924,-6.73643c2.36287,0.52189 4.90027,1.32277 6.58158,3.06309c1.2545,1.29854 1.07563,3.45433 1.42599,5.22555c0.08089,0.40893 -0.51356,1.43983 -0.14669,1.24192c3.75043,-2.0231 6.85145,-5.13499 10.63836,-7.08897c2.26109,-1.16668 4.52298,-4.08962 6.91693,-3.22784c6.27993,2.26065 4.5538,13.26294 4.54263,17.90494c-0.42773,2.21674 -0.30802,4.61406 -1.28318,6.65023c-0.80741,1.68589 -2.71374,2.59254 -3.85308,4.07445c-4.01291,5.21944 -6.97163,12.15662 -11.62719,16.85699c-1.16202,1.17321 -3.05518,1.3999 -4.25884,2.53036c-1.59811,1.50092 -1.83918,4.83555 -3.99701,5.22342c-3.23675,0.58181 -6.7848,-0.89038 -9.45882,-2.80471c-1.3662,-0.97806 -0.33961,-3.47973 -1.272,-4.87749c-0.90604,-1.35825 -2.86895,-1.6821 -3.93091,-2.92225c-1.40027,-1.63523 -2.56101,-3.52594 -3.31693,-5.54171c-1.19093,-3.1758 -1.0702,-6.02481 -1.3883,-8.93266zM183.91332,309.83515c0.71952,0.62011 1.38781,1.27806 1.89774,2.04341c0.7024,1.05424 0.08126,2.56323 0.45804,3.7727c0.1121,0.35985 0.69279,0.95501 0.92141,0.65536c0.73367,-0.96159 0.3754,-2.53555 1.1931,-3.42677c1.15698,-1.26099 3.17474,-1.4562 4.39135,-2.65976c4.37763,-4.33063 7.05812,-11.18275 10.86331,-16.01374c0.86295,-1.09559 2.40977,-1.61569 3.06707,-2.84571c0.59018,-1.10442 0.29791,-2.48667 0.44686,-3.73c-0.00442,-1.62302 -0.0242,-3.24607 -0.01326,-4.86905c0.0049,-0.72803 -0.06671,-1.46648 -0.0648,-2.1962c-3.19301,2.088 -14.59281,7.86218 -15.88486,7.73323c-8.88159,-0.88642 -1.73506,-12.41728 -11.1244,-9.57086c-2.67583,0.81119 -6.4423,3.79895 -7.10008,7.0614c0.00196,0 0.00392,0 0.00588,0c3.89259,0 3.89259,3.89259 3.89259,3.89259l-0.27841,1.14939c0.62137,1.61405 0.94104,3.16342 1.14924,4.68552c1.67084,3.16745 2.6397,4.8719 6.75452,7.26259c0,0 3.33787,2.00272 1.33515,5.34058c-0.56544,0.9424 -1.23731,1.45908 -1.91044,1.71532z" fill="#000000" stroke="none" stroke-width="0.5"/><path d="M-118.75235,569.73734v-171.66979h517.82364v171.66979z" fill="#ffffff" stroke="#000000" stroke-width="5"/></g></g></svg>