<svg version="1.1" xmlns="http://www.w3.org/2000/svg" xmlns:xlink="http://www.w3.org/1999/xlink" width="66.66667" height="65.61232" viewBox="0,0,66.66667,65.61232"><defs><linearGradient x1="134.41082" y1="214.33652" x2="134.41082" y2="250.90473" gradientUnits="userSpaceOnUse" id="color-1"><stop offset="0" stop-color="#1a1a1a"/><stop offset="1" stop-color="#1a1a1a" stop-opacity="0"/></linearGradient></defs><g transform="translate(-101.66666,-207.19384)"><g data-paper-data="{&quot;isPaintingLayer&quot;:true}" fill-rule="nonzero" stroke-linejoin="miter" stroke-miterlimit="10" stroke-dasharray="" stroke-dashoffset="0" style="mix-blend-mode: normal"><path d="M104.16667,270.30616v-60.61232h61.66667v60.61232z" fill="#ffffff" stroke="#000000" stroke-width="5" stroke-linecap="butt"/><path d="M118.17337,232.89474c0,-9.29309 7.53354,-16.82663 16.82663,-16.82663c9.29309,0 16.82663,7.53354 16.82663,16.82663c0,9.29309 -7.53354,16.82663 -16.82663,16.82663c-9.29309,0 -16.82663,-7.53354 -16.82663,-16.82663z" fill="#000000" stroke="#000000" stroke-width="5" stroke-linecap="butt"/><path d="M121.91176,267.15749l5.29412,-29.41176" fill="none" stroke="#000000" stroke-width="5" stroke-linecap="round"/><path d="M143.97059,240.09868l5.29411,29.41177" data-paper-data="{&quot;index&quot;:null}" fill="none" stroke="#000000" stroke-width="5" stroke-linecap="round"/><path d="M130.81101,238.00783c2.44118,1.39496 2.46301,2.26033 2.25905,3.57221c-0.12095,0.77792 -0.32129,1.71284 -0.14366,3.00828c0.13112,0.95625 1.67056,-1.33584 2.62821,-1.21533c0.68245,0.08588 1.09552,1.02254 1.78316,1.03841c1.68816,0.03894 1.36529,-3.93909 3.57507,-4.06186c2.69538,-0.14974 3.39209,3.5065 4.03387,5.69074c1.50414,5.11918 4.28837,12.61632 3.85273,18.21612c-0.10921,1.40376 -0.57086,5.40929 -2.50766,6.00303c-3.25893,0.99905 -3.91875,-0.83168 -6.11193,-0.84135c-4.09907,-0.01806 -8.19824,-0.00992 -12.29734,0c-0.68261,0.00165 -2.15021,0.40835 -2.68047,-0.18429c-3.12502,-3.49266 0.57066,-9.99027 0.98988,-14.22394c0.43099,-4.35259 1.63809,-7.59065 1.73448,-12.19433c0.01116,-0.5332 0.38213,-3.3777 0.73008,-3.57653z" fill="#000000" stroke="none" stroke-width="0.5" stroke-linecap="butt"/><path d="M116.12671,232.62062c0,-10.09803 8.18607,-18.28411 18.28411,-18.28411c10.09803,0 18.28411,8.18607 18.28411,18.28411c0,10.09803 -8.18607,18.28411 -18.28411,18.28411c-10.09803,0 -18.28411,-8.18607 -18.28411,-18.28411z" fill="url(#color-1)" stroke="#000000" stroke-width="5" stroke-linecap="butt"/><path d="M121.987,254.18649l-9.14205,-7.03235" data-paper-data="{&quot;index&quot;:null}" fill="none" stroke="#000000" stroke-width="5" stroke-linecap="round"/><path d="M155.81963,248.16915l-9.14205,7.03235" data-paper-data="{&quot;index&quot;:null}" fill="none" stroke="#000000" stroke-width="5" stroke-linecap="round"/></g></g></svg>